<svg width="203" height="138" viewBox="0 0 203 138" fill="none" xmlns="http://www.w3.org/2000/svg">
<rect x="0.244949" y="49.1487" width="188.95" height="73.4143" transform="rotate(-15 0.244949 49.1487)" fill="#C4C4C4" stroke="black" stroke-width="0.4"/>
<ellipse cx="173.517" cy="20.7872" rx="8.02329" ry="11.2326" transform="rotate(-15 173.517 20.7872)" fill="#EBEBEB"/>
<ellipse cx="184.314" cy="61.087" rx="8.02329" ry="11.2326" transform="rotate(-15 184.314 61.087)" fill="#EBEBEB"/>
<ellipse cx="18.5175" cy="62.3197" rx="8.02329" ry="11.2326" transform="rotate(-15 18.5175 62.3197)" fill="#EBEBEB"/>
<ellipse cx="29.3173" cy="102.618" rx="8.02329" ry="11.2326" transform="rotate(-15 29.3173 102.618)" fill="#EBEBEB"/>
<ellipse cx="100.586" cy="58.6031" rx="14.4419" ry="19.2559" transform="rotate(-15 100.586 58.6031)" fill="#898989"/>
<rect x="83.9814" y="89.6331" width="51.3491" height="3.20932" transform="rotate(-15 83.9814 89.6331)" fill="#808080"/>
<rect x="3.44068" y="55.5067" width="188.95" height="73.4143" transform="rotate(-10 3.44068 55.5067)" fill="#C4C4C4" stroke="black" stroke-width="0.4"/>
<ellipse cx="178.526" cy="42.3553" rx="8.02329" ry="11.2326" transform="rotate(-10 178.526 42.3553)" fill="#EBEBEB"/>
<ellipse cx="185.769" cy="83.4424" rx="8.02329" ry="11.2326" transform="rotate(-10 185.769 83.4424)" fill="#EBEBEB"/>
<ellipse cx="20.4984" cy="70.2198" rx="8.02329" ry="11.2326" transform="rotate(-10 20.4984 70.2198)" fill="#EBEBEB"/>
<ellipse cx="27.7416" cy="111.307" rx="8.02329" ry="11.2326" transform="rotate(-10 27.7416 111.307)" fill="#EBEBEB"/>
<ellipse cx="102.575" cy="73.6704" rx="14.4419" ry="19.2559" transform="rotate(-10 102.575 73.6704)" fill="#898989"/>
<rect x="83.3291" y="103.135" width="51.3491" height="3.20932" transform="rotate(-10 83.3291 103.135)" fill="#808080"/>
<rect x="6.63562" y="61.6142" width="188.95" height="73.4143" transform="rotate(-5 6.63562 61.6142)" fill="#C4C4C4" stroke="black" stroke-width="0.4"/>
<ellipse cx="182.199" cy="63.7721" rx="8.02329" ry="11.2326" transform="rotate(-5 182.199 63.7721)" fill="#EBEBEB"/>
<ellipse cx="185.835" cy="105.335" rx="8.02329" ry="11.2326" transform="rotate(-5 185.835 105.335)" fill="#EBEBEB"/>
<ellipse cx="22.3448" cy="77.7579" rx="8.02329" ry="11.2326" transform="rotate(-5 22.3448 77.7579)" fill="#EBEBEB"/>
<ellipse cx="25.9805" cy="119.32" rx="8.02329" ry="11.2326" transform="rotate(-5 25.9805 119.32)" fill="#EBEBEB"/>
<ellipse cx="103.81" cy="88.349" rx="14.4419" ry="19.2559" transform="rotate(-5 103.81 88.349)" fill="#898989"/>
<rect x="82.0693" y="116.024" width="51.3491" height="3.20932" transform="rotate(-5 82.0693 116.024)" fill="#808080"/>
<rect x="6.61895" y="64.3858" width="188.95" height="73.4143" fill="#C4C4C4" stroke="black" stroke-width="0.4"/>
<ellipse cx="181.326" cy="81.8371" rx="8.02329" ry="11.2326" fill="#EBEBEB"/>
<ellipse cx="181.326" cy="123.558" rx="8.02329" ry="11.2326" fill="#EBEBEB"/>
<ellipse cx="20.8602" cy="81.8371" rx="8.02329" ry="11.2326" fill="#EBEBEB"/>
<ellipse cx="20.8602" cy="123.558" rx="8.02329" ry="11.2326" fill="#EBEBEB"/>
<ellipse cx="101.093" cy="99.4883" rx="14.4419" ry="19.2559" fill="#898989"/>
<rect x="77.0234" y="125.163" width="51.3491" height="3.20932" fill="#808080"/>
</svg>
