<svg width="188" height="86" viewBox="0 0 188 86" fill="none" xmlns="http://www.w3.org/2000/svg">
<rect x="43" y="6" width="5" height="73" fill="#3E3E3E"/>
<rect x="55" y="6" width="5" height="73" fill="#3E3E3E"/>
<path d="M70.16 56.72C70.16 61.7867 68.32 65.7333 64.64 68.56C60.96 71.3867 56 72.8 49.76 72.8C46.56 72.8 43.6 72.56 40.88 72.08C38.16 71.6 35.8933 70.9333 34.08 70.08V63.2C36 64.0533 38.3733 64.8267 41.2 65.52C44.08 66.2133 47.04 66.56 50.08 66.56C54.2933 66.56 57.4933 65.7333 59.68 64.08C61.8667 62.4267 62.96 60.1867 62.96 57.36C62.96 55.4933 62.56 53.92 61.76 52.64C60.96 51.36 59.5733 50.1867 57.6 49.12C55.6267 48.0533 52.9333 46.88 49.52 45.6C44.6133 43.84 40.9333 41.68 38.48 39.12C36.0267 36.56 34.8 33.0667 34.8 28.64C34.8 25.6533 35.5733 23.0667 37.12 20.88C38.6667 18.6933 40.8 17.0133 43.52 15.84C46.24 14.6667 49.4133 14.08 53.04 14.08C56.1333 14.08 58.9867 14.3733 61.6 14.96C64.2133 15.5467 66.6133 16.32 68.8 17.28L66.56 23.44C64.5867 22.5867 62.4267 21.8667 60.08 21.28C57.7333 20.6933 55.3333 20.4 52.88 20.4C49.3067 20.4 46.6133 21.1733 44.8 22.72C42.9867 24.2133 42.08 26.2133 42.08 28.72C42.08 30.64 42.48 32.24 43.28 33.52C44.08 34.8 45.3867 35.9733 47.2 37.04C49.0133 38.0533 51.4667 39.12 54.56 40.24C57.92 41.4667 60.7467 42.8 63.04 44.24C65.3867 45.6267 67.1467 47.3067 68.32 49.28C69.5467 51.2533 70.16 53.7333 70.16 56.72Z" fill="#3E3E3E"/>
<mask id="path-4-outside-1" maskUnits="userSpaceOnUse" x="149" y="9" width="39" height="75" fill="black">
<rect fill="white" x="149" y="9" width="39" height="75"/>
<path fill-rule="evenodd" clip-rule="evenodd" d="M158.92 10H163.92V18.509C165.49 18.223 167.17 18.08 168.96 18.08C169.624 18.08 170.278 18.0935 170.92 18.1206V10H175.92V18.6426C176.463 18.7366 176.996 18.8424 177.52 18.96C180.133 19.5467 182.533 20.32 184.72 21.28L182.48 27.44C180.507 26.5867 178.347 25.8667 176 25.28C175.973 25.2733 175.947 25.2667 175.92 25.2601V46.5473C177.02 47.0941 178.034 47.6584 178.96 48.24C181.307 49.6267 183.067 51.3067 184.24 53.28C185.467 55.2533 186.08 57.7333 186.08 60.72C186.08 65.7867 184.24 69.7333 180.56 72.56C179.191 73.6119 177.644 74.468 175.92 75.1285V83H170.92V76.4231C169.287 76.6744 167.54 76.8 165.68 76.8C165.085 76.8 164.498 76.7917 163.92 76.7751V83H158.92V76.3994C158.198 76.3084 157.491 76.202 156.8 76.08C154.08 75.6 151.813 74.9333 150 74.08V67.2C151.92 68.0533 154.293 68.8267 157.12 69.52C157.717 69.6636 158.317 69.7924 158.92 69.9062V46.6129C157.116 45.5457 155.609 44.3814 154.4 43.12C151.947 40.56 150.72 37.0667 150.72 32.64C150.72 29.6533 151.493 27.0667 153.04 24.88C154.487 22.8346 156.447 21.2326 158.92 20.0738V10ZM158.92 28.8606C158.307 29.9757 158 31.2622 158 32.72C158 34.4011 158.307 35.837 158.92 37.0274V28.8606ZM163.92 49.0264V70.5052C164.609 70.5417 165.302 70.56 166 70.56C167.831 70.56 169.471 70.4038 170.92 70.0914V51.8403C169.366 51.1339 167.539 50.3871 165.44 49.6C164.92 49.4133 164.413 49.2221 163.92 49.0264ZM170.92 44.4024C170.774 44.348 170.628 44.2939 170.48 44.24C167.82 43.2769 165.633 42.3533 163.92 41.4691V25.0332C165.306 24.6111 166.933 24.4 168.8 24.4C169.511 24.4 170.218 24.4246 170.92 24.4739V44.4024ZM175.92 54.6999V67.8274C177.893 66.2011 178.88 64.0452 178.88 61.36C178.88 59.4933 178.48 57.92 177.68 56.64C177.257 55.9635 176.671 55.3168 175.92 54.6999Z"/>
</mask>
<path fill-rule="evenodd" clip-rule="evenodd" d="M158.92 10H163.92V18.509C165.49 18.223 167.17 18.08 168.96 18.08C169.624 18.08 170.278 18.0935 170.92 18.1206V10H175.92V18.6426C176.463 18.7366 176.996 18.8424 177.52 18.96C180.133 19.5467 182.533 20.32 184.72 21.28L182.48 27.44C180.507 26.5867 178.347 25.8667 176 25.28C175.973 25.2733 175.947 25.2667 175.92 25.2601V46.5473C177.02 47.0941 178.034 47.6584 178.96 48.24C181.307 49.6267 183.067 51.3067 184.24 53.28C185.467 55.2533 186.08 57.7333 186.08 60.72C186.08 65.7867 184.24 69.7333 180.56 72.56C179.191 73.6119 177.644 74.468 175.92 75.1285V83H170.92V76.4231C169.287 76.6744 167.54 76.8 165.68 76.8C165.085 76.8 164.498 76.7917 163.92 76.7751V83H158.92V76.3994C158.198 76.3084 157.491 76.202 156.8 76.08C154.08 75.6 151.813 74.9333 150 74.08V67.2C151.92 68.0533 154.293 68.8267 157.12 69.52C157.717 69.6636 158.317 69.7924 158.92 69.9062V46.6129C157.116 45.5457 155.609 44.3814 154.4 43.12C151.947 40.56 150.72 37.0667 150.72 32.64C150.72 29.6533 151.493 27.0667 153.04 24.88C154.487 22.8346 156.447 21.2326 158.92 20.0738V10ZM158.92 28.8606C158.307 29.9757 158 31.2622 158 32.72C158 34.4011 158.307 35.837 158.92 37.0274V28.8606ZM163.92 49.0264V70.5052C164.609 70.5417 165.302 70.56 166 70.56C167.831 70.56 169.471 70.4038 170.92 70.0914V51.8403C169.366 51.1339 167.539 50.3871 165.44 49.6C164.92 49.4133 164.413 49.2221 163.92 49.0264ZM170.92 44.4024C170.774 44.348 170.628 44.2939 170.48 44.24C167.82 43.2769 165.633 42.3533 163.92 41.4691V25.0332C165.306 24.6111 166.933 24.4 168.8 24.4C169.511 24.4 170.218 24.4246 170.92 24.4739V44.4024ZM175.92 54.6999V67.8274C177.893 66.2011 178.88 64.0452 178.88 61.36C178.88 59.4933 178.48 57.92 177.68 56.64C177.257 55.9635 176.671 55.3168 175.92 54.6999Z" fill="#DDDDDD"/>
<path d="M163.92 10H164.92V9H163.92V10ZM158.92 10V9H157.92V10H158.92ZM163.92 18.509H162.92V19.7077L164.099 19.4928L163.92 18.509ZM170.92 18.1206L170.878 19.1197L171.92 19.1636V18.1206H170.92ZM170.92 10V9H169.92V10H170.92ZM175.92 10H176.92V9H175.92V10ZM175.92 18.6426H174.92V19.4844L175.749 19.628L175.92 18.6426ZM177.52 18.96L177.739 17.9843L177.739 17.9843L177.52 18.96ZM184.72 21.28L185.66 21.6217L185.98 20.7411L185.122 20.3644L184.72 21.28ZM182.48 27.44L182.083 28.3579L183.057 28.7791L183.42 27.7817L182.48 27.44ZM176 25.28L175.757 26.2501L175.757 26.2501L176 25.28ZM175.92 25.2601L176.16 24.2893L174.92 23.983V25.2601H175.92ZM175.92 46.5473H174.92V47.167L175.475 47.4428L175.92 46.5473ZM178.96 48.24L178.428 49.0869L178.44 49.0941L178.451 49.1009L178.96 48.24ZM184.24 53.28L183.38 53.7911L183.386 53.7996L183.391 53.8079L184.24 53.28ZM180.56 72.56L179.951 71.767L179.951 71.767L180.56 72.56ZM175.92 75.1285L175.562 74.1947L174.92 74.4407V75.1285H175.92ZM175.92 83V84H176.92V83H175.92ZM170.92 83H169.92V84H170.92V83ZM170.92 76.4231H171.92V75.2574L170.768 75.4347L170.92 76.4231ZM163.92 76.7751L163.949 75.7755L162.92 75.746V76.7751H163.92ZM163.92 83V84H164.92V83H163.92ZM158.92 83H157.92V84H158.92V83ZM158.92 76.3994H159.92V75.5175L159.045 75.4073L158.92 76.3994ZM156.8 76.08L156.626 77.0648L156.626 77.0648L156.8 76.08ZM150 74.08H149V74.7146L149.574 74.9848L150 74.08ZM150 67.2L150.406 66.2862L149 65.6612V67.2H150ZM157.12 69.52L156.882 70.4912L156.886 70.4922L157.12 69.52ZM158.92 69.9062L158.735 70.8889L159.92 71.1126V69.9062H158.92ZM158.92 46.6129H159.92V46.0425L159.429 45.7521L158.92 46.6129ZM154.4 43.12L155.122 42.4281L155.122 42.4281L154.4 43.12ZM153.04 24.88L152.224 24.3025L152.224 24.3025L153.04 24.88ZM158.92 20.0738L159.344 20.9794L159.92 20.7096V20.0738H158.92ZM158.92 28.8606H159.92L158.044 28.3787L158.92 28.8606ZM158.92 37.0274L158.031 37.4854L159.92 37.0274H158.92ZM163.92 70.5052H162.92V71.4537L163.867 71.5038L163.92 70.5052ZM163.92 49.0264L164.289 48.097L162.92 47.5534V49.0264H163.92ZM170.92 70.0914L171.131 71.0689L171.92 70.8987V70.0914H170.92ZM170.92 51.8403H171.92V51.1963L171.334 50.9299L170.92 51.8403ZM165.44 49.6L165.791 48.6637L165.784 48.6611L165.778 48.6587L165.44 49.6ZM170.48 44.24L170.823 43.3006L170.82 43.2997L170.48 44.24ZM170.92 44.4024L170.57 45.3393L171.92 45.8428V44.4024H170.92ZM163.92 41.4691H162.92V42.0784L163.461 42.3578L163.92 41.4691ZM163.92 25.0332L163.629 24.0766L162.92 24.2924V25.0332H163.92ZM170.92 24.4739H171.92V23.5417L170.99 23.4764L170.92 24.4739ZM175.92 67.8274H174.92V69.9475L176.556 68.5991L175.92 67.8274ZM175.92 54.6999L176.555 53.9274L174.92 52.5835V54.6999H175.92ZM163.92 9H158.92V11H163.92V9ZM164.92 18.509V10H162.92V18.509H164.92ZM164.099 19.4928C165.603 19.2188 167.222 19.08 168.96 19.08V17.08C167.117 17.08 165.376 17.2272 163.741 17.5252L164.099 19.4928ZM168.96 19.08C169.611 19.08 170.25 19.0933 170.878 19.1197L170.962 17.1215C170.305 17.0938 169.638 17.08 168.96 17.08V19.08ZM169.92 10V18.1206H171.92V10H169.92ZM175.92 9H170.92V11H175.92V9ZM176.92 18.6426V10H174.92V18.6426H176.92ZM175.749 19.628C176.277 19.7193 176.794 19.8218 177.301 19.9357L177.739 17.9843C177.199 17.863 176.649 17.754 176.091 17.6573L175.749 19.628ZM177.301 19.9357C179.859 20.51 182.197 21.2644 184.318 22.1956L185.122 20.3644C182.87 19.3756 180.408 18.5834 177.739 17.9843L177.301 19.9357ZM183.78 20.9383L181.54 27.0983L183.42 27.7817L185.66 21.6217L183.78 20.9383ZM182.877 26.5221C180.848 25.6447 178.636 24.9081 176.243 24.3099L175.757 26.2501C178.058 26.8252 180.165 27.5286 182.083 28.3579L182.877 26.5221ZM176.243 24.3099C176.215 24.303 176.187 24.2961 176.16 24.2893L175.68 26.2309C175.706 26.2373 175.732 26.2437 175.757 26.2501L176.243 24.3099ZM176.92 46.5473V25.2601H174.92V46.5473H176.92ZM175.475 47.4428C176.549 47.9766 177.533 48.5249 178.428 49.0869L179.492 47.3931C178.534 46.7918 177.492 46.2116 176.365 45.6518L175.475 47.4428ZM178.451 49.1009C180.681 50.4182 182.308 51.9867 183.38 53.7911L185.1 52.7689C183.826 50.6266 181.933 48.8351 179.469 47.3791L178.451 49.1009ZM183.391 53.8079C184.494 55.5835 185.08 57.8674 185.08 60.72H187.08C187.08 57.5992 186.439 54.9232 185.089 52.7521L183.391 53.8079ZM185.08 60.72C185.08 65.5088 183.359 69.1487 179.951 71.767L181.169 73.3531C185.121 70.3179 187.08 66.0645 187.08 60.72H185.08ZM179.951 71.767C178.663 72.7561 177.202 73.5664 175.562 74.1947L176.278 76.0623C178.086 75.3697 179.718 74.4677 181.169 73.3531L179.951 71.767ZM176.92 83V75.1285H174.92V83H176.92ZM170.92 84H175.92V82H170.92V84ZM169.92 76.4231V83H171.92V76.4231H169.92ZM170.768 75.4347C169.191 75.6774 167.496 75.8 165.68 75.8V77.8C167.585 77.8 169.383 77.6714 171.072 77.4115L170.768 75.4347ZM165.68 75.8C165.094 75.8 164.517 75.7918 163.949 75.7755L163.891 77.7747C164.48 77.7916 165.076 77.8 165.68 77.8V75.8ZM164.92 83V76.7751H162.92V83H164.92ZM158.92 84H163.92V82H158.92V84ZM157.92 76.3994V83H159.92V76.3994H157.92ZM159.045 75.4073C158.339 75.3183 157.648 75.2142 156.974 75.0952L156.626 77.0648C157.334 77.1897 158.057 77.2986 158.795 77.3916L159.045 75.4073ZM156.974 75.0952C154.311 74.6252 152.135 73.9796 150.426 73.1752L149.574 74.9848C151.491 75.887 153.849 76.5747 156.626 77.0648L156.974 75.0952ZM151 74.08V67.2H149V74.08H151ZM149.594 68.1138C151.584 68.9984 154.018 69.7887 156.882 70.4912L157.358 68.5488C154.569 67.8646 152.256 67.1083 150.406 66.2862L149.594 68.1138ZM156.886 70.4922C157.499 70.6397 158.115 70.7719 158.735 70.8889L159.105 68.9236C158.518 68.8128 157.934 68.6875 157.354 68.5478L156.886 70.4922ZM157.92 46.6129V69.9062H159.92V46.6129H157.92ZM159.429 45.7521C157.688 44.7224 156.257 43.6122 155.122 42.4281L153.678 43.8119C154.961 45.1506 156.543 46.369 158.411 47.4736L159.429 45.7521ZM155.122 42.4281C152.889 40.0977 151.72 36.8761 151.72 32.64H149.72C149.72 37.2573 151.005 41.0223 153.678 43.8119L155.122 42.4281ZM151.72 32.64C151.72 29.8353 152.443 27.456 153.856 25.4575L152.224 24.3025C150.544 26.6773 149.72 29.4713 149.72 32.64H151.72ZM153.856 25.4575C155.194 23.5662 157.013 22.0714 159.344 20.9794L158.496 19.1683C155.88 20.3938 153.779 22.1031 152.224 24.3025L153.856 25.4575ZM157.92 10V20.0738H159.92V10H157.92ZM158.044 28.3787C157.338 29.6617 157 31.1185 157 32.72H159C159 31.4059 159.275 30.2897 159.796 29.3426L158.044 28.3787ZM157 32.72C157 34.5207 157.328 36.1217 158.031 37.4854L159.809 36.5694C159.285 35.5522 159 34.2816 159 32.72H157ZM157.92 28.8606V37.0274H159.92V28.8606H157.92ZM164.92 70.5052V49.0264H162.92V70.5052H164.92ZM163.867 71.5038C164.574 71.5413 165.285 71.56 166 71.56V69.56C165.32 69.56 164.644 69.5422 163.973 69.5066L163.867 71.5038ZM166 71.56C167.886 71.56 169.599 71.3993 171.131 71.0689L170.709 69.1139C169.344 69.4083 167.776 69.56 166 69.56V71.56ZM169.92 51.8403V70.0914H171.92V51.8403H169.92ZM171.334 50.9299C169.754 50.2117 167.905 49.4564 165.791 48.6637L165.089 50.5363C167.173 51.3178 168.978 52.056 170.506 52.7507L171.334 50.9299ZM165.778 48.6587C165.267 48.4756 164.771 48.2884 164.289 48.097L163.551 49.9558C164.055 50.1558 164.572 50.351 165.102 50.5413L165.778 48.6587ZM170.137 45.1794C170.283 45.2325 170.427 45.2858 170.57 45.3393L171.27 43.4655C171.122 43.4103 170.973 43.3554 170.823 43.3006L170.137 45.1794ZM163.461 42.3578C165.226 43.2685 167.456 44.2087 170.14 45.1803L170.82 43.2997C168.184 42.3452 166.041 41.4382 164.379 40.5805L163.461 42.3578ZM164.92 41.4691V25.0332H162.92V41.4691H164.92ZM168.8 23.4C166.861 23.4 165.132 23.6188 163.629 24.0766L164.211 25.9899C165.481 25.6034 167.005 25.4 168.8 25.4V23.4ZM170.99 23.4764C170.264 23.4254 169.534 23.4 168.8 23.4V25.4C169.488 25.4 170.171 25.4238 170.85 25.4715L170.99 23.4764ZM169.92 24.4739V44.4024H171.92V24.4739H169.92ZM176.92 67.8274V54.6999H174.92V67.8274H176.92ZM176.556 68.5991C178.773 66.7721 179.88 64.3267 179.88 61.36H177.88C177.88 63.7638 177.014 65.63 175.284 67.0558L176.556 68.5991ZM179.88 61.36C179.88 59.3502 179.448 57.5827 178.528 56.11L176.832 57.17C177.512 58.2573 177.88 59.6365 177.88 61.36H179.88ZM178.528 56.11C178.037 55.3242 177.372 54.5986 176.555 53.9274L175.285 55.4725C175.969 56.035 176.478 56.6029 176.832 57.17L178.528 56.11Z" fill="black" mask="url(#path-4-outside-1)"/>
<rect x="12" y="27" width="6" height="30" fill="#262626"/>
<rect y="45" width="6" height="30" transform="rotate(-90 0 45)" fill="#262626"/>
<rect x="112.5" y="48.5" width="5" height="29" transform="rotate(-90 112.5 48.5)" fill="#D7D7D7" stroke="black"/>
<rect x="111.211" width="5" height="91" transform="rotate(22.7634 111.211 0)" fill="#020202"/>
</svg>
