<svg width="100" height="150" viewBox="0 0 100 150" fill="none" xmlns="http://www.w3.org/2000/svg">
<rect width="100" height="150" rx="10" fill="#F4F4F4"/>
<rect x="78" y="8" width="16" height="7" fill="#C4C4C4"/>
<rect x="5" y="22" width="19" height="11" fill="#C4C4C4"/>
<rect width="15" height="1" transform="matrix(1 0 0 -1 79 4)" fill="#2F2F2F"/>
<rect x="13.1" y="40.1" width="68.8" height="8.8" fill="#E8E8E8" stroke="black" stroke-width="0.2"/>
<rect x="2.15" y="59.15" width="30.7" height="8.7" fill="#DFDFDF" stroke="black" stroke-width="0.3"/>
<rect x="28" y="61" width="4" height="1" fill="#5E5E5E"/>
<rect x="4" y="61" width="12" height="1" fill="#5E5E5E"/>
<rect x="4" y="63" width="7" height="1" fill="#5E5E5E"/>
<rect x="4" y="65" width="10" height="1" fill="#5E5E5E"/>
<rect x="28" y="63" width="4" height="1" fill="#5E5E5E"/>
<rect x="28" y="65" width="4" height="1" fill="#5E5E5E"/>
<rect x="10.2" y="76.2" width="78.6" height="65.6" fill="white" stroke="black" stroke-width="0.4"/>
<rect x="11" y="78" width="77" height="2" fill="#555555"/>
<rect x="11" y="94" width="77" height="2" fill="#555555"/>
<rect x="11" y="110" width="77" height="2" fill="#555555"/>
<rect x="11" y="126" width="77" height="2" fill="#555555"/>
<rect x="11" y="86" width="77" height="2" fill="#555555"/>
<rect x="11" y="102" width="77" height="2" fill="#555555"/>
<rect x="11" y="118" width="77" height="2" fill="#555555"/>
<rect x="11" y="134" width="77" height="2" fill="#555555"/>
<rect x="11" y="82" width="77" height="2" fill="#555555"/>
<rect x="11" y="98" width="77" height="2" fill="#555555"/>
<rect x="11" y="114" width="77" height="2" fill="#555555"/>
<rect x="11" y="130" width="77" height="2" fill="#555555"/>
<rect x="11" y="90" width="77" height="2" fill="#555555"/>
<rect x="11" y="106" width="77" height="2" fill="#555555"/>
<rect x="11" y="122" width="77" height="2" fill="#555555"/>
<rect x="11" y="138" width="77" height="2" fill="#555555"/>
</svg>
