<svg width="192" height="127" viewBox="0 0 192 127" fill="none" xmlns="http://www.w3.org/2000/svg">
<path d="M115.751 103.442C113.679 106.1 109.474 103.849 110.538 100.651L128.073 47.9195C128.66 46.1543 130.696 45.3433 132.336 46.2214L148.962 55.123C150.603 56.0011 151.056 58.1448 149.913 59.6121L115.751 103.442Z" fill="#C4C4C4"/>
<path d="M92.3206 27.7463C89.7016 25.6515 91.9703 21.492 95.1495 22.5596L146.298 39.7362C148.067 40.3303 148.871 42.3783 147.977 44.0166L138.963 60.5427C138.07 62.181 135.913 62.6146 134.456 61.4489L92.3206 27.7463Z" fill="#C4C4C4"/>
<path d="M63.5288 65.9077C61.8602 62.9058 65.7272 59.9097 68.2172 62.2752L77.7459 71.3276C79.0782 72.5933 78.9697 74.7485 77.517 75.8741L74.3739 78.3094C72.9212 79.4349 70.8072 79.0016 69.9143 77.3954L63.5288 65.9077Z" fill="#C4C4C4"/>
<rect x="129.646" y="68.0713" width="17" height="5" transform="rotate(-10.2802 129.646 68.0713)" fill="#C4C4C4"/>
<rect x="121.848" y="77.4614" width="17" height="5" transform="rotate(-10.2802 121.848 77.4614)" fill="#C4C4C4"/>
<rect x="106.1" y="29.4824" width="14.5459" height="5" transform="rotate(-10.2802 106.1 29.4824)" fill="#C4C4C4"/>
<rect x="116.816" y="33.3774" width="14.5459" height="5" transform="rotate(-10.2802 116.816 33.3774)" fill="#C4C4C4"/>
<path d="M76.8874 83.9626L180.668 45.681C185.962 43.7283 188.588 37.7814 186.467 32.5531C184.344 27.3225 178.312 24.8889 173.153 27.1819L72.0749 72.1152C68.8517 73.5481 67.3965 77.3195 68.822 80.546C70.1869 83.6355 73.7185 85.1315 76.8874 83.9626Z" fill="#C4C4C4"/>
<rect x="0.5" y="0.5" width="61" height="126" fill="#D6D6D6" stroke="black"/>
<rect x="4" y="9" width="17" height="9" fill="#1E1E1E"/>
<rect x="4" y="21" width="17" height="9" fill="#1E1E1E"/>
<rect x="4" y="33" width="17" height="9" fill="#1E1E1E"/>
<rect x="4" y="44" width="17" height="9" fill="#1E1E1E"/>
<rect x="4" y="55" width="17" height="9" fill="#1E1E1E"/>
<rect x="4" y="67" width="17" height="9" fill="#1E1E1E"/>
<rect x="4" y="77" width="17" height="9" fill="#1E1E1E"/>
<rect x="4" y="88" width="17" height="9" fill="#1E1E1E"/>
<rect x="22" y="9" width="17" height="9" fill="#1E1E1E"/>
<rect x="22" y="21" width="17" height="9" fill="#1E1E1E"/>
<rect x="22" y="33" width="17" height="9" fill="#1E1E1E"/>
<rect x="22" y="44" width="17" height="9" fill="#1E1E1E"/>
<rect x="22" y="55" width="17" height="9" fill="#1E1E1E"/>
<rect x="22" y="67" width="17" height="9" fill="#1E1E1E"/>
<rect x="22" y="77" width="17" height="9" fill="#1E1E1E"/>
<rect x="22" y="88" width="17" height="9" fill="#1E1E1E"/>
<rect x="40" y="9" width="17" height="9" fill="#1E1E1E"/>
<rect x="40" y="21" width="17" height="9" fill="#1E1E1E"/>
<rect x="40" y="33" width="17" height="9" fill="#1E1E1E"/>
<rect x="40" y="44" width="17" height="9" fill="#1E1E1E"/>
<rect x="40" y="55" width="17" height="9" fill="#1E1E1E"/>
<rect x="40" y="67" width="17" height="9" fill="#1E1E1E"/>
<rect x="40" y="77" width="17" height="9" fill="#1E1E1E"/>
<rect x="40" y="88" width="17" height="9" fill="#1E1E1E"/>
<rect x="21" y="104" width="19" height="23" fill="#5C5C5C"/>
<rect x="30" y="104" width="1" height="23" fill="#2B2B2B"/>
</svg>
