<svg width="220" height="162" viewBox="0 0 220 162" fill="none" xmlns="http://www.w3.org/2000/svg">
<rect x="1" y="23" width="219" height="139" fill="#C4C4C4"/>
<rect y="23" width="220" height="27" fill="#989898"/>
<rect x="90" y="31" width="41" height="10" fill="#434343"/>
<rect x="46.5" y="0.5" width="25" height="45" fill="#C4C4C4" stroke="black"/>
<rect x="150.5" y="0.5" width="25" height="45" fill="#C4C4C4" stroke="black"/>
<rect x="43" y="50" width="5" height="112" fill="black"/>
<rect y="50" width="5" height="112" fill="black"/>
<rect x="130" y="50" width="5" height="112" fill="black"/>
<rect x="86" y="50" width="5" height="112" fill="black"/>
<rect x="173" y="50" width="5" height="112" fill="black"/>
<rect x="215" y="50" width="5" height="112" fill="black"/>
<rect x="5" y="50" width="215" height="5" fill="black"/>
<rect x="3" y="72" width="215" height="5" fill="black"/>
<rect x="3" y="94" width="215" height="5" fill="black"/>
<rect x="3" y="116" width="215" height="5" fill="black"/>
<rect x="3" y="138" width="215" height="5" fill="black"/>
<rect x="3" y="157" width="215" height="5" fill="black"/>
<rect x="188.201" y="68.323" width="18.8416" height="4.91519" transform="rotate(-45 188.201 68.323)" fill="#373737"/>
<rect x="201.323" y="72.0059" width="18.8416" height="4.91519" transform="rotate(-135 201.323 72.0059)" fill="#373737"/>
<rect x="102.201" y="134.323" width="18.8416" height="4.91519" transform="rotate(-45 102.201 134.323)" fill="#373737"/>
<rect x="115.323" y="138.006" width="18.8416" height="4.91519" transform="rotate(-135 115.323 138.006)" fill="#373737"/>
</svg>
