<svg width="179" height="125" viewBox="0 0 179 125" fill="none" xmlns="http://www.w3.org/2000/svg">
<rect x="33.7471" y="16" width="2" height="34" rx="1" transform="rotate(20.2127 33.7471 16)" fill="#C4C4C4"/>
<rect x="42.1924" y="19.1094" width="2" height="34" rx="1" transform="rotate(20.2127 42.1924 19.1094)" fill="#C4C4C4"/>
<rect x="33.6494" y="19.1606" width="9" height="1" transform="rotate(20.2127 33.6494 19.1606)" fill="#C4C4C4"/>
<rect x="29.5029" y="30.4219" width="9" height="1" transform="rotate(20.2127 29.5029 30.4219)" fill="#C4C4C4"/>
<rect x="32.2666" y="22.9146" width="9" height="1" transform="rotate(20.2127 32.2666 22.9146)" fill="#C4C4C4"/>
<rect x="28.1211" y="34.1753" width="9" height="1" transform="rotate(20.2127 28.1211 34.1753)" fill="#C4C4C4"/>
<rect x="25.3564" y="41.6826" width="9" height="1" transform="rotate(20.2127 25.3564 41.6826)" fill="#C4C4C4"/>
<rect x="30.8848" y="26.668" width="9" height="1" transform="rotate(20.2127 30.8848 26.668)" fill="#C4C4C4"/>
<rect x="26.7393" y="37.9292" width="9" height="1" transform="rotate(20.2127 26.7393 37.9292)" fill="#C4C4C4"/>
<rect x="23.9746" y="45.4365" width="9" height="1" transform="rotate(20.2127 23.9746 45.4365)" fill="#C4C4C4"/>
<rect x="3.09766" y="95.4751" width="48.003" height="5" transform="rotate(12.8019 3.09766 95.4751)" fill="#AAAAAA"/>
<rect x="6.33301" y="88.4619" width="11" height="8" transform="rotate(13.35 6.33301 88.4619)" fill="#C4C4C4"/>
<ellipse cx="16.1122" cy="94.8937" rx="2" ry="4" transform="rotate(13.35 16.1122 94.8937)" fill="#C4C4C4"/>
<ellipse cx="5.40908" cy="92.3537" rx="2" ry="4" transform="rotate(13.35 5.40908 92.3537)" fill="#C4C4C4"/>
<rect x="9.07031" y="94.2505" width="3" height="14" transform="rotate(13.35 9.07031 94.2505)" fill="#C4C4C4"/>
<path d="M20.9902 97.7778L22.4298 97.4749C22.1978 100.29 23.0013 105.575 24.8533 108.991L23.4137 109.294L20.9902 97.7778Z" fill="#C4C4C4"/>
<path d="M28.9902 97.7778L27.5507 97.4749C27.7826 100.29 26.9792 105.575 25.1272 108.991L26.5667 109.294L28.9902 97.7778Z" fill="#C4C4C4"/>
<path fill-rule="evenodd" clip-rule="evenodd" d="M25.7859 114.844C26.2682 114.361 26.5994 113.363 26.5994 112.211C26.5994 110.586 25.9408 109.269 25.1283 109.269C24.3159 109.269 23.6572 110.586 23.6572 112.211C23.6572 113.363 23.988 114.36 24.4698 114.843L25.1277 112.211L25.7859 114.844Z" fill="#C4C4C4"/>
<rect x="36.1572" y="98.2251" width="4.08333" height="22.1667" fill="#C4C4C4"/>
<ellipse cx="38.1986" cy="121.558" rx="3.20833" ry="2.91667" fill="#F8F8F8"/>
<ellipse cx="38.1989" cy="98.2251" rx="2.04167" ry="1.75" fill="#C4C4C4"/>
<path fill-rule="evenodd" clip-rule="evenodd" d="M40.3901 123.688C41.0158 123.156 41.4069 122.399 41.4069 121.558C41.4069 119.947 39.9705 118.642 38.1986 118.642C36.4267 118.642 34.9902 119.947 34.9902 121.558C34.9902 122.397 35.3799 123.153 36.0037 123.686C35.7316 123.41 35.5733 123.08 35.5733 122.725C35.5733 121.759 36.7486 120.975 38.1983 120.975C39.648 120.975 40.8233 121.759 40.8233 122.725C40.8233 123.081 40.6639 123.412 40.3901 123.688Z" fill="#C4C4C4"/>
<path d="M35.5732 120.392C36.0971 119.933 36.2601 119.548 36.4482 118.642" stroke="#C4C4C4" stroke-width="0.583333"/>
<path d="M40.8232 120.392C40.474 119.933 40.0736 119.548 39.9482 118.642" stroke="#C4C4C4" stroke-width="0.583333"/>
<rect x="34.4893" y="104.475" width="7.94262" height="2" transform="rotate(14.4383 34.4893 104.475)" fill="#AAAAAA"/>
<rect x="21.4893" y="101.475" width="7.94262" height="2" transform="rotate(14.4383 21.4893 101.475)" fill="#AAAAAA"/>
<rect x="5.48926" y="97.4751" width="7.94262" height="2" transform="rotate(14.4383 5.48926 97.4751)" fill="#AAAAAA"/>
<rect x="129" y="6.45557" width="17.2981" height="18.7808" rx="3.95385" fill="#C4C4C4"/>
<rect x="133.942" y="23.7539" width="38.0558" height="4.44808" rx="0.494231" fill="#C4C4C4"/>
<ellipse cx="161.167" cy="14.0954" rx="16.0625" ry="7.75144" transform="rotate(26.4547 161.167 14.0954)" fill="#C4C4C4"/>
<rect x="169.279" y="15.8462" width="9.39039" height="3.45962" transform="rotate(39.9926 169.279 15.8462)" fill="#C4C4C4"/>
<rect x="148.77" y="13.8691" width="0.988462" height="10.8731" fill="#C4C4C4"/>
<rect x="164.585" y="23.2593" width="4.44808" height="1.48269" fill="#C4C4C4"/>
<circle cx="137.402" cy="28.2018" r="3.45962" fill="#E7E7E7"/>
<circle cx="166.067" cy="28.2018" r="3.45962" fill="#E7E7E7"/>
<circle cx="87.019" cy="22.7925" r="21.7925" fill="#4B4B4B"/>
<path fill-rule="evenodd" clip-rule="evenodd" d="M69.2654 45.3748C65.2075 43.2229 59 45.8438 59 50.437V111.062C59 113.823 61.2386 116.062 64 116.062H109C111.761 116.062 114 113.823 114 111.062V50.437C114 45.8438 107.793 43.2229 103.735 45.3748C98.592 48.1018 92.7264 49.6464 86.5 49.6464C80.2736 49.6464 74.408 48.1018 69.2654 45.3748Z" fill="#4B4B4B"/>
<rect x="136" y="92" width="30" height="19.3548" rx="2.41935" fill="#868686"/>
<path d="M136 111.839C136 111.305 136.434 110.872 136.968 110.872L165.048 110.9C165.574 110.9 166 111.327 166 111.853V111.853C166 112.38 165.573 112.807 165.047 112.807H136.967C136.433 112.807 136 112.374 136 111.839V111.839Z" fill="#5E5E5E"/>
<rect x="136.483" y="92.4839" width="29.0323" height="17.9032" rx="2.41935" fill="white"/>
<rect x="148.581" y="111.839" width="4.83871" height="0.483871" fill="#C4C4C4"/>
<rect x="152.936" y="92.9678" width="11.6129" height="16.9355" rx="0.483871" fill="#363636"/>
<rect x="137.936" y="93.4517" width="7.25806" height="0.483871" fill="#4F4F4F"/>
<rect x="138.419" y="94.4194" width="5.32258" height="0.483871" fill="#4F4F4F"/>
<rect x="137.936" y="95.8711" width="3.3871" height="0.483871" fill="#4F4F4F"/>
<rect x="137.936" y="96.8389" width="9.19355" height="0.483871" fill="#4F4F4F"/>
<rect x="139.871" y="97.8066" width="7.25806" height="0.483871" fill="#4F4F4F"/>
<rect x="137.936" y="101.193" width="2.41935" height="0.483871" fill="#4F4F4F"/>
<rect x="138.419" y="102.161" width="3.3871" height="0.483871" fill="#4F4F4F"/>
<rect x="143.742" y="102.161" width="4.83871" height="0.483871" fill="#4F4F4F"/>
<rect x="140.354" y="103.129" width="2.90323" height="0.483871" fill="#4F4F4F"/>
<rect x="140.839" y="104.097" width="5.32258" height="0.483871" fill="#4F4F4F"/>
<rect x="141.322" y="105.064" width="5.32258" height="0.483871" fill="#4F4F4F"/>
<rect x="138.419" y="106.516" width="7.25806" height="0.483871" fill="#4F4F4F"/>
<rect x="138.419" y="107.968" width="9.19355" height="0.483871" fill="#4F4F4F"/>
<rect x="144.71" y="101.193" width="2.41935" height="0.483871" fill="#4F4F4F"/>
<rect x="141.322" y="101.193" width="2.41935" height="0.483871" fill="#4F4F4F"/>
</svg>
