<svg width="80" height="110" viewBox="0 0 80 110" fill="none" xmlns="http://www.w3.org/2000/svg">
<rect width="80" height="110" rx="20" fill="#F3F3F3"/>
<rect x="9" y="9" width="62" height="6" rx="3" fill="#262626"/>
<rect x="9" y="25" width="62" height="2" rx="1" fill="#262626"/>
<rect x="9" y="28" width="62" height="2" rx="1" fill="#262626"/>
<rect x="9" y="31" width="62" height="2" rx="1" fill="#262626"/>
<rect x="9" y="61" width="62" height="2" rx="1" fill="#262626"/>
<rect x="9" y="64" width="62" height="2" rx="1" fill="#262626"/>
<rect x="9" y="91" width="62" height="1" rx="0.5" fill="#262626"/>
<rect x="9" y="93" width="62" height="1" rx="0.5" fill="#262626"/>
<rect x="9" y="95" width="62" height="1" rx="0.5" fill="#262626"/>
<rect x="9" y="73" width="25" height="2" rx="1" fill="#262626"/>
<rect x="9" y="76" width="25" height="2" rx="1" fill="#262626"/>
<rect x="9" y="79" width="25" height="2" rx="1" fill="#262626"/>
<rect x="9" y="82" width="25" height="2" rx="1" fill="#262626"/>
<rect x="46" y="73" width="25" height="2" rx="1" fill="#262626"/>
<rect x="46" y="76" width="25" height="2" rx="1" fill="#262626"/>
<rect x="46" y="79" width="25" height="2" rx="1" fill="#262626"/>
<rect x="46" y="82" width="25" height="2" rx="1" fill="#262626"/>
<rect x="44" y="38" width="27" height="2" rx="1" fill="#262626"/>
<rect x="44" y="41" width="27" height="2" rx="1" fill="#262626"/>
<rect x="44" y="44" width="27" height="2" rx="1" fill="#262626"/>
<rect x="44" y="47" width="27" height="2" rx="1" fill="#262626"/>
<line x1="10" y1="99.8" x2="29" y2="99.8" stroke="black" stroke-width="0.4"/>
<line x1="52" y1="99.8" x2="71" y2="99.8" stroke="black" stroke-width="0.4"/>
<rect x="11" y="39" width="28" height="18" fill="white"/>
<rect x="11.05" y="39.05" width="3.9" height="1.9" fill="white" stroke="black" stroke-width="0.1"/>
<rect x="11.05" y="41.05" width="3.9" height="1.9" fill="white" stroke="black" stroke-width="0.1"/>
<rect x="11.05" y="43.05" width="3.9" height="1.9" fill="white" stroke="black" stroke-width="0.1"/>
<rect x="11.05" y="45.05" width="3.9" height="1.9" fill="white" stroke="black" stroke-width="0.1"/>
<rect x="11.05" y="47.05" width="3.9" height="1.9" fill="white" stroke="black" stroke-width="0.1"/>
<rect x="11.05" y="49.05" width="3.9" height="1.9" fill="white" stroke="black" stroke-width="0.1"/>
<rect x="11.05" y="51.05" width="3.9" height="1.9" fill="white" stroke="black" stroke-width="0.1"/>
<rect x="11.05" y="53.05" width="3.9" height="1.9" fill="white" stroke="black" stroke-width="0.1"/>
<rect x="11.05" y="55.05" width="3.9" height="1.9" fill="white" stroke="black" stroke-width="0.1"/>
<rect x="15.05" y="39.05" width="3.9" height="1.9" fill="white" stroke="black" stroke-width="0.1"/>
<rect x="15.05" y="41.05" width="3.9" height="1.9" fill="white" stroke="black" stroke-width="0.1"/>
<rect x="15.05" y="43.05" width="3.9" height="1.9" fill="white" stroke="black" stroke-width="0.1"/>
<rect x="15.05" y="45.05" width="3.9" height="1.9" fill="white" stroke="black" stroke-width="0.1"/>
<rect x="15.05" y="47.05" width="3.9" height="1.9" fill="white" stroke="black" stroke-width="0.1"/>
<rect x="15.05" y="49.05" width="3.9" height="1.9" fill="white" stroke="black" stroke-width="0.1"/>
<rect x="15.05" y="51.05" width="3.9" height="1.9" fill="white" stroke="black" stroke-width="0.1"/>
<rect x="15.05" y="53.05" width="3.9" height="1.9" fill="white" stroke="black" stroke-width="0.1"/>
<rect x="15.05" y="55.05" width="3.9" height="1.9" fill="white" stroke="black" stroke-width="0.1"/>
<rect x="19.05" y="39.05" width="3.9" height="1.9" fill="white" stroke="black" stroke-width="0.1"/>
<rect x="19.05" y="41.05" width="3.9" height="1.9" fill="white" stroke="black" stroke-width="0.1"/>
<rect x="19.05" y="43.05" width="3.9" height="1.9" fill="white" stroke="black" stroke-width="0.1"/>
<rect x="19.05" y="45.05" width="3.9" height="1.9" fill="white" stroke="black" stroke-width="0.1"/>
<rect x="19.05" y="47.05" width="3.9" height="1.9" fill="white" stroke="black" stroke-width="0.1"/>
<rect x="19.05" y="49.05" width="3.9" height="1.9" fill="white" stroke="black" stroke-width="0.1"/>
<rect x="19.05" y="51.05" width="3.9" height="1.9" fill="white" stroke="black" stroke-width="0.1"/>
<rect x="19.05" y="53.05" width="3.9" height="1.9" fill="white" stroke="black" stroke-width="0.1"/>
<rect x="19.05" y="55.05" width="3.9" height="1.9" fill="white" stroke="black" stroke-width="0.1"/>
<rect x="23.05" y="39.05" width="3.9" height="1.9" fill="white" stroke="black" stroke-width="0.1"/>
<rect x="23.05" y="41.05" width="3.9" height="1.9" fill="white" stroke="black" stroke-width="0.1"/>
<rect x="23.05" y="43.05" width="3.9" height="1.9" fill="white" stroke="black" stroke-width="0.1"/>
<rect x="23.05" y="45.05" width="3.9" height="1.9" fill="white" stroke="black" stroke-width="0.1"/>
<rect x="23.05" y="47.05" width="3.9" height="1.9" fill="white" stroke="black" stroke-width="0.1"/>
<rect x="23.05" y="49.05" width="3.9" height="1.9" fill="white" stroke="black" stroke-width="0.1"/>
<rect x="23.05" y="51.05" width="3.9" height="1.9" fill="white" stroke="black" stroke-width="0.1"/>
<rect x="23.05" y="53.05" width="3.9" height="1.9" fill="white" stroke="black" stroke-width="0.1"/>
<rect x="23.05" y="55.05" width="3.9" height="1.9" fill="white" stroke="black" stroke-width="0.1"/>
<rect x="27.05" y="39.05" width="3.9" height="1.9" fill="white" stroke="black" stroke-width="0.1"/>
<rect x="27.05" y="41.05" width="3.9" height="1.9" fill="white" stroke="black" stroke-width="0.1"/>
<rect x="27.05" y="43.05" width="3.9" height="1.9" fill="white" stroke="black" stroke-width="0.1"/>
<rect x="27.05" y="45.05" width="3.9" height="1.9" fill="white" stroke="black" stroke-width="0.1"/>
<rect x="27.05" y="47.05" width="3.9" height="1.9" fill="white" stroke="black" stroke-width="0.1"/>
<rect x="27.05" y="49.05" width="3.9" height="1.9" fill="white" stroke="black" stroke-width="0.1"/>
<rect x="27.05" y="51.05" width="3.9" height="1.9" fill="white" stroke="black" stroke-width="0.1"/>
<rect x="27.05" y="53.05" width="3.9" height="1.9" fill="white" stroke="black" stroke-width="0.1"/>
<rect x="27.05" y="55.05" width="3.9" height="1.9" fill="white" stroke="black" stroke-width="0.1"/>
<rect x="31.05" y="39.05" width="3.9" height="1.9" fill="white" stroke="black" stroke-width="0.1"/>
<rect x="31.05" y="41.05" width="3.9" height="1.9" fill="white" stroke="black" stroke-width="0.1"/>
<rect x="31.05" y="43.05" width="3.9" height="1.9" fill="white" stroke="black" stroke-width="0.1"/>
<rect x="31.05" y="45.05" width="3.9" height="1.9" fill="white" stroke="black" stroke-width="0.1"/>
<rect x="31.05" y="47.05" width="3.9" height="1.9" fill="white" stroke="black" stroke-width="0.1"/>
<rect x="31.05" y="49.05" width="3.9" height="1.9" fill="white" stroke="black" stroke-width="0.1"/>
<rect x="31.05" y="51.05" width="3.9" height="1.9" fill="white" stroke="black" stroke-width="0.1"/>
<rect x="31.05" y="53.05" width="3.9" height="1.9" fill="white" stroke="black" stroke-width="0.1"/>
<rect x="31.05" y="55.05" width="3.9" height="1.9" fill="white" stroke="black" stroke-width="0.1"/>
<rect x="35.05" y="39.05" width="3.9" height="1.9" fill="white" stroke="black" stroke-width="0.1"/>
<rect x="35.05" y="41.05" width="3.9" height="1.9" fill="white" stroke="black" stroke-width="0.1"/>
<rect x="35.05" y="43.05" width="3.9" height="1.9" fill="white" stroke="black" stroke-width="0.1"/>
<rect x="35.05" y="45.05" width="3.9" height="1.9" fill="white" stroke="black" stroke-width="0.1"/>
<rect x="35.05" y="47.05" width="3.9" height="1.9" fill="white" stroke="black" stroke-width="0.1"/>
<rect x="35.05" y="49.05" width="3.9" height="1.9" fill="white" stroke="black" stroke-width="0.1"/>
<rect x="35.05" y="51.05" width="3.9" height="1.9" fill="white" stroke="black" stroke-width="0.1"/>
<rect x="35.05" y="53.05" width="3.9" height="1.9" fill="white" stroke="black" stroke-width="0.1"/>
<rect x="35.05" y="55.05" width="3.9" height="1.9" fill="white" stroke="black" stroke-width="0.1"/>
</svg>
