<svg width="131" height="139" viewBox="0 0 131 139" fill="none" xmlns="http://www.w3.org/2000/svg">
<rect x="0.5" y="34.5" width="104" height="104" fill="#C4C4C4" stroke="#636363"/>
<rect x="41.333" y="34.5" width="21.1667" height="31.6667" fill="#E6E6E6" stroke="#636363"/>
<rect x="51.833" y="34.5" width="1.33333" height="31.6667" fill="#949494" stroke="#636363"/>
<rect x="59.5" y="0.5" width="67.4878" height="51" fill="#C4C4C4" stroke="#636363"/>
<rect x="86.1318" y="0.5" width="13.4585" height="15.1778" fill="#E6E6E6" stroke="#636363"/>
<rect x="92.8639" y="0.380488" width="0.760976" height="15.4168" fill="#949494" stroke="#636363" stroke-width="0.760976"/>
<rect x="44.5" y="52.5" width="86" height="86" fill="#C4C4C4" stroke="#636363"/>
<rect x="78.332" y="52.5" width="17.3667" height="26.0667" fill="#E6E6E6" stroke="#636363"/>
<rect x="87.0165" y="52.4833" width="0.966667" height="26.1" fill="#949494" stroke="#636363" stroke-width="0.966667"/>
<rect x="11.25" y="8.25" width="27.5" height="39.5" fill="#C4C4C4" stroke="#444444" stroke-width="0.5"/>
<rect x="13" y="11" width="24" height="34" fill="#EDEDED"/>
<rect x="17" y="8" width="16" height="5" fill="#787878"/>
<rect x="16" y="24" width="6" height="3" fill="#C4C4C4"/>
<rect x="17" y="32" width="9" height="4" fill="#C4C4C4"/>
<rect x="17" y="39" width="7" height="3" fill="#C4C4C4"/>
<rect x="31.0488" y="17.2307" width="0.490351" height="1.96141" transform="rotate(-37.508 31.0488 17.2307)" fill="#414141"/>
<rect x="32.1377" y="18.2485" width="3.318" height="0.490351" transform="rotate(-37.508 32.1377 18.2485)" fill="#414141"/>
<rect x="31.0488" y="33.2307" width="0.490351" height="1.96141" transform="rotate(-37.508 31.0488 33.2307)" fill="#414141"/>
<rect x="32.1377" y="34.2485" width="3.318" height="0.490351" transform="rotate(-37.508 32.1377 34.2485)" fill="#414141"/>
<rect x="31.0488" y="39.2307" width="0.490351" height="1.96141" transform="rotate(-37.508 31.0488 39.2307)" fill="#414141"/>
<rect x="32.1377" y="40.2485" width="3.318" height="0.490351" transform="rotate(-37.508 32.1377 40.2485)" fill="#414141"/>
<rect x="34.5713" y="27" width="3.63649" height="0.606082" transform="rotate(-135 34.5713 27)" fill="#910808"/>
<rect x="32" y="26.5715" width="3.63649" height="0.606082" transform="rotate(-45 32 26.5715)" fill="#910808"/>
</svg>
