<svg width="131" height="139" viewBox="0 0 131 139" fill="none" xmlns="http://www.w3.org/2000/svg">
<rect y="34" width="105" height="105" rx="2" fill="#6D6D6D"/>
<rect x="41.334" y="34.5" width="21.1667" height="31.6667" rx="1.5" fill="#E6E6E6" stroke="#636363"/>
<rect x="51.834" y="34.5" width="1.33333" height="31.6667" rx="0.666667" fill="#949494" stroke="#636363"/>
<rect x="59" width="68.4878" height="52" rx="2" fill="#AEAEAE"/>
<rect x="85.6309" width="14.4585" height="16.1778" rx="2" fill="#E6E6E6"/>
<rect x="92.4844" width="1.52195" height="16.1778" rx="0.760976" fill="#949494"/>
<rect x="44" y="52" width="87" height="87" rx="2" fill="#B9B9B9"/>
<rect x="77.832" y="52" width="18.3667" height="27.0667" rx="2" fill="#E6E6E6"/>
<rect x="86.5332" y="52" width="1.93333" height="27.0667" rx="0.966667" fill="#949494"/>
<rect x="11.25" y="8.25" width="27.5" height="39.5" fill="#C4C4C4" stroke="#444444" stroke-width="0.5"/>
<rect x="13" y="11" width="24" height="34" fill="#EDEDED"/>
<rect x="17" y="8" width="16" height="5" fill="#787878"/>
<rect x="16" y="24" width="6" height="3" fill="#C4C4C4"/>
<rect x="17" y="32" width="9" height="4" fill="#C4C4C4"/>
<rect x="17" y="39" width="7" height="3" fill="#C4C4C4"/>
<rect x="31.0488" y="17.2305" width="0.490351" height="1.96141" transform="rotate(-37.508 31.0488 17.2305)" fill="#414141"/>
<rect x="32.1387" y="18.2485" width="3.318" height="0.490351" transform="rotate(-37.508 32.1387 18.2485)" fill="#414141"/>
<rect x="31.0488" y="33.2305" width="0.490351" height="1.96141" transform="rotate(-37.508 31.0488 33.2305)" fill="#414141"/>
<rect x="32.1387" y="34.2485" width="3.318" height="0.490351" transform="rotate(-37.508 32.1387 34.2485)" fill="#414141"/>
<rect x="31.0488" y="39.2305" width="0.490351" height="1.96141" transform="rotate(-37.508 31.0488 39.2305)" fill="#414141"/>
<rect x="32.1387" y="40.2485" width="3.318" height="0.490351" transform="rotate(-37.508 32.1387 40.2485)" fill="#414141"/>
<rect x="34.5723" y="27" width="3.63649" height="0.606082" transform="rotate(-135 34.5723 27)" fill="#910808"/>
<rect x="32" y="26.5713" width="3.63649" height="0.606082" transform="rotate(-45 32 26.5713)" fill="#910808"/>
<rect x="17" y="16" width="6" height="3" fill="#C4C4C4"/>
</svg>
