<svg width="108" height="62" viewBox="0 0 108 62" fill="none" xmlns="http://www.w3.org/2000/svg">
<path fill-rule="evenodd" clip-rule="evenodd" d="M84 24C81.2385 24 79 26.2386 79 29V45C79 47.7614 81.2385 50 84 50H84.3324C85.4298 45.9662 89.1185 43 93.5 43C97.8815 43 101.57 45.9662 102.668 50H103C105.761 50 108 47.7614 108 45V29C108 26.2386 105.761 24 103 24H84Z" fill="#C4C4C4"/>
<path fill-rule="evenodd" clip-rule="evenodd" d="M0 5C0 2.23858 2.23853 0 5 0H71C73.7615 0 76 2.23858 76 5V45C76 47.7614 73.7615 50 71 50H63.6676C62.5702 45.9662 58.8815 43 54.5 43C50.1185 43 46.4298 45.9662 45.3324 50H21.6676C20.5702 45.9662 16.8815 43 12.5 43C8.21289 43 4.58899 45.8398 3.40686 49.7408C1.42651 49.0757 0 47.2044 0 45V5Z" fill="#C4C4C4"/>
<circle cx="93.5" cy="52.5" r="8.5" fill="#C4C4C4"/>
<circle cx="12.5" cy="53.5" r="8.5" fill="#C4C4C4"/>
<circle cx="54.5" cy="53.5" r="8.5" fill="#C4C4C4"/>
</svg>
