<svg width="99" height="145" viewBox="0 0 99 145" fill="none" xmlns="http://www.w3.org/2000/svg">
<circle cx="23.4889" cy="20.1823" r="18.1823" fill="#D1D1D1"/>
<path fill-rule="evenodd" clip-rule="evenodd" d="M10.6303 39.9725C6.42988 38.1139 0.111328 40.8268 0.111328 45.42V93.0001C0.111328 95.7616 2.3499 98.0001 5.11133 98.0001H40.9999C43.7613 98.0001 45.9999 95.7616 45.9999 93.0002V45.42C45.9999 40.8268 39.6813 38.1139 35.4809 39.9725C31.6816 41.6537 27.4776 42.5875 23.0556 42.5875C18.6336 42.5875 14.4297 41.6537 10.6303 39.9725Z" fill="#D1D1D1"/>
<circle cx="76.9239" cy="17.8302" r="17.8302" fill="#DDDDDD"/>
<path fill-rule="evenodd" clip-rule="evenodd" d="M64.548 37.339C60.332 35.516 54 38.2399 54 42.8332V89.1412C54 91.9026 56.2386 94.1412 59 94.1412H94C96.7614 94.1412 99 91.9026 99 89.1412V42.8332C99 38.2399 92.668 35.516 88.452 37.339C84.7875 38.9235 80.7463 39.8015 76.5 39.8015C72.2537 39.8015 68.2125 38.9235 64.548 37.339Z" fill="#DDDDDD"/>
<circle cx="36.1079" cy="39.7505" r="18.7505" fill="#949494"/>
<path fill-rule="evenodd" clip-rule="evenodd" d="M22.4741 59.991C18.2982 58.0779 12 60.7738 12 65.367V115C12 117.762 14.2386 120 17 120H54.3226C57.084 120 59.3226 117.762 59.3226 115V65.367C59.3226 60.7738 53.0244 58.0779 48.8485 59.991C44.8331 61.8305 40.3669 62.8559 35.6613 62.8559C30.9557 62.8559 26.4895 61.8305 22.4741 59.991Z" fill="#949494"/>
<circle cx="68.019" cy="50.7925" r="21.7925" fill="#7E7E7E"/>
<path fill-rule="evenodd" clip-rule="evenodd" d="M50.2654 73.3748C46.2075 71.2229 40 73.8438 40 78.437V139.062C40 141.823 42.2386 144.062 45 144.062H90C92.7614 144.062 95 141.823 95 139.062V78.437C95 73.8438 88.7925 71.2229 84.7346 73.3748C79.592 76.1018 73.7264 77.6464 67.5 77.6464C61.2736 77.6464 55.408 76.1018 50.2654 73.3748Z" fill="#7E7E7E"/>
</svg>
