<svg width="136" height="219" viewBox="0 0 136 219" fill="none" xmlns="http://www.w3.org/2000/svg">
<path fill-rule="evenodd" clip-rule="evenodd" d="M63.9706 106.842C60.3387 98.498 57.0114 82.6732 54.2158 65.5764C54.7512 65.4329 55.2819 65.2427 55.8027 65.0041L66.0116 60.3273C71.0327 58.0271 73.2384 52.092 70.9382 47.071L52.1649 6.09144C50.156 1.7063 45.3747 -0.531433 40.851 0.504366C39.4835 0.245783 38.015 0.388524 36.6159 1.02948L4.74711 15.629C2.06528 16.8576 0.43937 19.6742 0.716059 22.6111C8.95818 110.095 38.2991 148.494 86.728 211.874C87.6795 213.12 88.6383 214.374 89.6044 215.639C91.5907 218.24 95.1271 219.139 98.1023 217.776L122.112 206.777C122.344 206.69 122.574 206.595 122.803 206.491L129.393 203.472C134.414 201.171 136.62 195.236 134.319 190.215L115.938 150.091C113.638 145.07 107.703 142.864 102.682 145.164L96.0914 148.183C95.4264 148.488 94.8107 148.857 94.2484 149.278C80.6311 132.833 68.1085 116.348 63.9706 106.842Z" fill="#838383"/>
<rect x="30.9434" y="6.10547" width="3" height="60.5972" transform="rotate(-23 30.9434 6.10547)" fill="white"/>
<rect x="92" y="152.315" width="3" height="60.5972" transform="rotate(-26 92 152.315)" fill="white"/>
</svg>
