<svg width="162" height="144" viewBox="0 0 162 144" fill="none" xmlns="http://www.w3.org/2000/svg">
<rect x="11" y="140.175" width="95" height="4" transform="rotate(-45 11 140.175)" fill="#C4C4C4"/>
<rect x="148.176" y="143.003" width="95" height="4" transform="rotate(-135 148.176 143.003)" fill="#C4C4C4"/>
<rect width="162" height="99" fill="#F2F2F2"/>
<rect x="106" y="11" width="12" height="8" fill="#C4C4C4"/>
<rect x="106" y="20" width="12" height="8" fill="#C4C4C4"/>
<rect x="106" y="29" width="12" height="8" fill="#C4C4C4"/>
<rect x="106" y="38" width="12" height="8" fill="#C4C4C4"/>
<rect x="122" y="11" width="12" height="8" fill="#C4C4C4"/>
<rect x="122" y="20" width="12" height="8" fill="#C4C4C4"/>
<rect x="122" y="29" width="12" height="8" fill="#C4C4C4"/>
<rect x="122" y="38" width="12" height="8" fill="#C4C4C4"/>
<rect x="138" y="11" width="12" height="8" fill="#C4C4C4"/>
<rect x="138" y="20" width="12" height="8" fill="#C4C4C4"/>
<rect x="138" y="29" width="12" height="8" fill="#C4C4C4"/>
<rect x="138" y="38" width="12" height="8" fill="#C4C4C4"/>
<rect x="19" y="17" width="60" height="50" fill="#FCFCFC"/>
<path d="M19 64.4999L23.5 59.4999L25.5 60.4999L30.5 56.4999L33.5 57.9999L37 47.9999L39 48.4999L40 45.9999L43 41.4999L51.5 39.9999L56 38.4999L57.5 33.9999L60 35.9999C60.1667 35.4999 60.7 34.2999 61.5 33.4999C62.5 32.4999 64.5 29.9999 65 29.4999C65.4 29.0999 67.5 29.6665 68.5 29.9999L70 27L72 23.5" stroke="black"/>
</svg>
