<svg width="107" height="144" viewBox="0 0 107 144" fill="none" xmlns="http://www.w3.org/2000/svg">
<rect width="107" height="144" rx="10" fill="#DFDFDF"/>
<rect x="44.6201" y="4" width="5.2381" height="76.4762" fill="#3E3E3E"/>
<rect x="57.1924" y="4" width="5.2381" height="76.4762" fill="#3E3E3E"/>
<path d="M72.2069 54.9104C72.2069 59.9771 70.3669 63.9238 66.6869 66.7504C63.0069 69.5771 58.0469 70.9904 51.8069 70.9904C48.6069 70.9904 45.6469 70.7504 42.9269 70.2704C40.2069 69.7904 37.9402 69.1238 36.1269 68.2704V61.3904C38.0469 62.2438 40.4202 63.0171 43.2469 63.7104C46.1269 64.4038 49.0869 64.7504 52.1269 64.7504C56.3402 64.7504 59.5402 63.9238 61.7269 62.2704C63.9135 60.6171 65.0069 58.3771 65.0069 55.5504C65.0069 53.6838 64.6069 52.1104 63.8069 50.8304C63.0069 49.5504 61.6202 48.3771 59.6469 47.3104C57.6735 46.2438 54.9802 45.0704 51.5669 43.7904C46.6602 42.0304 42.9802 39.8704 40.5269 37.3104C38.0735 34.7504 36.8469 31.2571 36.8469 26.8304C36.8469 23.8438 37.6202 21.2571 39.1669 19.0704C40.7135 16.8838 42.8469 15.2038 45.5669 14.0304C48.2869 12.8571 51.4602 12.2704 55.0869 12.2704C58.1802 12.2704 61.0335 12.5638 63.6469 13.1504C66.2602 13.7371 68.6602 14.5104 70.8469 15.4704L68.6069 21.6304C66.6335 20.7771 64.4735 20.0571 62.1269 19.4704C59.7802 18.8838 57.3802 18.5904 54.9269 18.5904C51.3535 18.5904 48.6602 19.3638 46.8469 20.9104C45.0335 22.4038 44.1269 24.4038 44.1269 26.9104C44.1269 28.8304 44.5269 30.4304 45.3269 31.7104C46.1269 32.9904 47.4335 34.1638 49.2469 35.2304C51.0602 36.2438 53.5135 37.3104 56.6069 38.4304C59.9669 39.6571 62.7935 40.9904 65.0869 42.4304C67.4335 43.8171 69.1935 45.4971 70.3669 47.4704C71.5935 49.4438 72.2069 51.9238 72.2069 54.9104Z" fill="#3E3E3E"/>
<rect x="10" y="86" width="88" height="3" fill="#323232"/>
<rect x="10" y="92" width="88" height="3" fill="#323232"/>
<rect x="10" y="97" width="88" height="3" fill="#323232"/>
<rect x="10" y="102" width="88" height="3" fill="#323232"/>
<rect x="10" y="108" width="88" height="3" fill="#323232"/>
<rect x="10" y="117" width="62" height="1" fill="#323232"/>
<rect x="10" y="129" width="62" height="1" fill="#323232"/>
<rect x="10" y="120" width="62" height="1" fill="#323232"/>
<rect x="84" y="119" width="21" height="1" fill="#323232"/>
<rect x="84" y="123" width="21" height="1" fill="#323232"/>
<rect x="84" y="127" width="21" height="1" fill="#323232"/>
<rect x="84" y="131" width="21" height="1" fill="#323232"/>
<rect x="84" y="135" width="21" height="1" fill="#323232"/>
<rect x="10" y="132" width="62" height="1" fill="#323232"/>
<rect x="10" y="123" width="62" height="1" fill="#323232"/>
<rect x="10" y="135" width="62" height="1" fill="#323232"/>
<rect x="10" y="126" width="62" height="1" fill="#323232"/>
<rect x="10" y="138" width="62" height="1" fill="#323232"/>
</svg>
